<?xml version="1.0" encoding="utf-8"?>
<!-- Svg Vector Icons : http://www.onlinewebfonts.com/icon -->
<!DOCTYPE svg PUBLIC "-//W3C//DTD SVG 1.1//EN" "http://www.w3.org/Graphics/SVG/1.1/DTD/svg11.dtd">
<svg version="1.1" xmlns="http://www.w3.org/2000/svg" xmlns:xlink="http://www.w3.org/1999/xlink" x="0px" y="0px" viewBox="0 0 256 256" enable-background="new 0 0 256 256" xml:space="preserve">
<metadata> Svg Vector Icons : http://www.onlinewebfonts.com/icon </metadata>
<g><g><path fill="#f1f1f1" d="M128,10C62.8,10,10,62.8,10,128c0,65.2,52.8,118,118,118c65.2,0,118-52.8,118-118C246,62.8,193.2,10,128,10z M198.1,198.1c-9.1,9.1-19.7,16.3-31.5,21.2c-3,1.3-6,2.4-9.1,3.3V205c0-9.3-3.2-16.1-9.6-20.5c4-0.4,7.7-0.9,11-1.6s6.9-1.7,10.6-3c3.7-1.3,7.1-2.9,10-4.7c3-1.8,5.8-4.1,8.5-7s5-6.1,6.9-9.8s3.3-8,4.4-13.1c1.1-5.1,1.6-10.7,1.6-16.9c0-11.9-3.9-22.1-11.6-30.4c3.5-9.2,3.2-19.2-1.2-30.1l-2.9-0.3c-2-0.2-5.6,0.6-10.8,2.5s-11,5.1-17.5,9.4c-9.2-2.5-18.6-3.8-28.5-3.8c-9.9,0-19.4,1.3-28.3,3.8c-4.1-2.8-7.9-5.1-11.6-6.9c-3.7-1.8-6.6-3-8.8-3.7c-2.2-0.7-4.2-1.1-6.1-1.2c-1.9-0.1-3.1-0.2-3.6-0.1c-0.5,0.1-0.9,0.1-1.2,0.2c-4.3,10.9-4.7,20.9-1.2,30.1c-7.8,8.4-11.6,18.5-11.6,30.4c0,6.1,0.5,11.8,1.6,16.9s2.5,9.5,4.4,13.1c1.9,3.7,4.1,6.9,6.9,9.8c2.7,2.9,5.6,5.2,8.5,7c3,1.8,6.3,3.4,10,4.7c3.7,1.3,7.2,2.3,10.6,3c3.3,0.7,7,1.2,11,1.6c-6.3,4.3-9.4,11.1-9.4,20.5v18c-3.5-1-6.9-2.3-10.3-3.7c-11.8-5-22.4-12.1-31.5-21.2c-9.1-9.1-16.3-19.7-21.2-31.5c-5.2-12.2-7.8-25.2-7.8-38.6c0-13.4,2.6-26.4,7.8-38.6c5-11.8,12.1-22.4,21.2-31.5c9.1-9.1,19.7-16.3,31.5-21.2c12.2-5.2,25.2-7.8,38.6-7.8c13.4,0,26.4,2.6,38.6,7.8c11.8,5,22.4,12.1,31.5,21.2c9.1,9.1,16.3,19.7,21.2,31.5c5.2,12.2,7.8,25.2,7.8,38.6c0,13.4-2.6,26.4-7.8,38.6C214.3,178.4,207.2,189,198.1,198.1L198.1,198.1z"/></g></g>
</svg>